<svg id="color_line" enable-background="new 0 0 512 512" height="40" viewBox="0 0 512 512" width="40" xmlns="http://www.w3.org/2000/svg"><g><g><path d="m103.687 198.767c-1.911-.002-3.458-1.553-3.455-3.464 0-.267.031-.532.093-.792 19.783-83.278 103.33-134.75 186.608-114.967 56.961 13.531 101.435 58.006 114.967 114.967.438 1.86-.714 3.723-2.573 4.161-.716.169-1.468.105-2.145-.183-93.384-39.506-198.788-39.506-292.172 0-.42.179-.869.273-1.323.278zm147.47-116.432c-66.133-.25-124.339 43.571-142.384 107.195 91.325-36.748 193.319-36.778 284.665-.083-18.052-63.563-76.205-107.342-142.281-107.112z" fill="#323c6b"/></g><g><path d="m251.157 39.701c-97.898-.018-179.926 74.058-189.855 171.451-6.511 96.173 39.299 141.236 89.738 181.76 61.386 37.824 138.848 37.824 200.234 0 61.578-45.153 108.454-97.494 89.669-181.968-10.011-97.292-91.98-171.253-189.786-171.243zm0 39.299c70.07-.014 130.986 48.078 147.235 116.238-94.089-39.963-200.38-39.963-294.469 0 16.248-68.16 77.164-116.251 147.234-116.238zm-146.474 189.925c-3.262-12.563-4.913-25.49-4.912-38.469 5.95-.277 132.428-3.667 125.648 149.172-27.564-4.639-53.266-16.939-74.171-35.494zm293.016.276-46.703 75.001c-20.959 18.448-46.643 30.691-74.171 35.356-6.642-153.323 120.666-149.31 125.717-149.103.044 13.071-1.593 26.093-4.871 38.746z" fill="#9297ab"/></g><g><path d="m440.915 210.944c-10.788-104.812-104.5-181.034-209.313-170.247-56.809 5.847-108.01 36.835-139.539 84.452 66.769-81.51 186.973-93.46 268.483-26.69 38.964 31.918 63.726 77.949 68.883 128.053 9.995 38.565 3.074 79.562-19.027 112.709 30.636-35.146 42.043-83.102 30.513-128.277z" fill="#84879c"/></g><g><path d="m251.157 385.245c-2.193 0-4.414-.055-6.614-.159-1.258.012-2.516-.065-3.764-.228-1.266-.048-2.705-.125-4.214-.27-3.93-.346-7.818-.913-11.707-1.55-1.732-.283-2.978-1.817-2.899-3.57 2.186-49.387-9.472-87.178-34.664-112.308-35.335-35.286-85.248-33.363-87.365-33.259-.948.057-1.875-.29-2.553-.955-.682-.654-1.067-1.559-1.066-2.505 0-2.768.069-5.376.208-8.067.076-1.91.214-3.93.436-5.881.062-1.072.201-2.325.353-3.515-.028-.466.021-.934.145-1.384.145-1.384.36-3.162.643-4.843.602-3.971 1.439-8.144 2.47-12.364.263-1.071 1.021-1.953 2.041-2.373 94.978-40.136 202.155-40.136 297.133 0 .938.399 1.651 1.192 1.951 2.166.323 1.016.57 2.054.74 3.107.45 2 .886 4.151 1.245 6.358.45 2.671.851 5.044 1.128 7.417.221 1.792.429 3.404.498 5.03.479 4.738.71 9.498.692 14.26v.069c0 .943-.385 1.845-1.066 2.498-.663.675-1.588 1.027-2.532.962-2.145-.111-52.445-1.737-87.545 33.425-25.074 25.123-36.67 62.831-34.595 112.086.073 1.725-1.138 3.24-2.837 3.549-3.888.692-7.784 1.204-11.762 1.626l-4.629.353c-1.204.076-2.38.152-3.459.152-2.102.118-4.26.173-6.412.173zm-22.175-8.558c2.726.415 5.452.768 8.22 1.01 1.418.138 2.768.201 4.151.27 1.116.133 2.239.202 3.363.208 4.331.201 8.545.208 12.703 0 1.135 0 2.166-.069 3.127-.138l4.477-.339c2.768-.291 5.487-.63 8.22-1.052-1.605-49.775 10.738-88.182 36.67-114.204 32.394-32.45 75.658-35.411 89.088-35.501-.083-3.605-.291-7.002-.637-10.309-.076-1.64-.263-3.058-.443-4.483-.291-2.505-.692-4.753-1.052-7.009-.401-2.442-.803-4.449-1.273-6.525-.048-.311-.104-.588-.152-.858-92.344-38.536-196.265-38.536-288.609 0-.796 3.459-1.453 6.822-1.951 10.102-.277 1.661-.477 3.335-.692 5.016 0 .145-.048.851-.069.996-.138 1.031-.263 2.124-.325 3.217-.214 1.972-.346 3.826-.415 5.611-.076 1.439-.131 2.851-.159 4.248 12.904.138 56.631 3.1 88.915 35.286 26.105 26.064 38.483 64.547 36.822 114.453h.021z" fill="#323c6b"/></g><g><path d="m267.651 222.187c9.347 7.756 14.267 31.827-2.83 41.105-18.626 10.15-46.433-4.954-50.377-35.978-2.169-16.159 5.369-32.083 19.242-40.649 2.664 18.751 24.618 27.766 33.965 35.522z" fill="#6fc666"/></g><g><path d="m252.222 269.907c-5.658-.055-11.221-1.454-16.232-4.082-14.084-7.798-23.426-22.03-24.977-38.054-2.399-17.472 5.742-34.713 20.757-43.963 1.591-1.058 3.738-.627 4.797.964.286.43.472.919.545 1.43 1.813 12.738 14.142 20.757 24.05 27.247 2.999 1.867 5.896 3.895 8.676 6.075 7.111 6.956 10.655 16.779 9.624 26.672-.609 8.494-5.515 16.087-13.008 20.134-4.368 2.368-9.263 3.598-14.232 3.577zm-20.667-77.347c-10.356 8.179-15.569 21.257-13.679 34.318 1.261 13.759 9.212 26.016 21.262 32.775 7.407 4.195 16.419 4.416 24.022.588 5.474-2.95 9.043-8.511 9.444-14.717.836-7.614-1.796-15.2-7.168-20.66-2.587-2.014-5.278-3.891-8.061-5.625-9.242-6.046-21.488-14.038-25.82-26.679z" fill="#323c6b"/></g><g><path d="m284.437 277.767c-.594.003-1.178-.15-1.695-.443-27.876-15.706-36.11-33.951-36.449-34.719-.672-1.789.233-3.783 2.021-4.455 1.657-.623 3.516.106 4.309 1.688 7.835 13.557 19.489 24.507 33.508 31.481 1.666.935 2.258 3.044 1.323 4.71-.613 1.091-1.767 1.767-3.018 1.766v-.028z" fill="#323c6b"/></g><g><path d="m87.946 101.12-3.093-1.626-2.768-2.076c1.066-1.439 1.827-2.463 2.629-3.459 1.147-1.528 3.316-1.837 4.844-.69s1.837 3.316.69 4.844c-.058.078-.12.153-.185.226-.747.927-1.425 1.854-2.117 2.781z" fill="#323c6b"/></g><g><path d="m100.892 84.646c-1.911.002-3.461-1.545-3.464-3.455-.001-.835.3-1.643.848-2.274 16.796-16.935 36.066-31.221 57.15-42.371 1.757-.75 3.79.066 4.54 1.824.723 1.694-.007 3.657-1.662 4.466-20.179 10.745-38.648 24.433-54.798 40.614-.656.759-1.61 1.196-2.614 1.196z" fill="#323c6b"/></g><g><path d="m278.888 339.062h-55.524c-1.911 0-3.459-1.549-3.459-3.459s1.549-3.459 3.459-3.459h55.517c1.911 0 3.459 1.549 3.459 3.459s-1.549 3.459-3.459 3.459z" fill="#323c6b"/></g><g><path d="m276.805 383.308c-1.853.002-3.378-1.456-3.459-3.307-2.29-51.705 10.185-91.406 37.065-118.009 37.909-37.507 90.257-35.1 92.458-34.968 1.837.099 3.275 1.619 3.273 3.459.008 13.375-1.708 26.695-5.106 39.632-.651 1.796-2.634 2.725-4.431 2.075-1.588-.575-2.528-2.212-2.225-3.874 2.957-11.254 4.582-22.816 4.843-34.449-11.921.145-53.525 2.913-83.961 33.066-24.714 24.493-36.518 61.073-35.107 108.758 25.488-5.052 49.189-16.747 68.705-33.903 1.41-1.29 3.598-1.193 4.888.217s1.192 3.598-.217 4.888c-.034.031-.069.062-.104.091-21.484 18.892-47.795 31.444-75.997 36.255-.207.04-.416.063-.625.069z" fill="#323c6b"/></g><g><path d="m225.418 383.308c-.195-.001-.389-.017-.581-.048-28.266-4.729-54.605-17.4-75.942-36.532-1.429-1.269-1.559-3.456-.291-4.885 1.269-1.429 3.456-1.559 4.885-.291 19.372 17.36 43.078 29.158 68.608 34.145 1.432-47.678-10.378-84.252-35.065-108.745-30.443-30.167-72.074-32.934-84.003-33.079.258 11.556 1.862 23.043 4.781 34.228.539 1.833-.51 3.756-2.343 4.295s-3.756-.51-4.295-2.343c-.02-.066-.037-.134-.053-.201-3.36-12.865-5.058-26.107-5.051-39.403-.003-1.84 1.435-3.36 3.273-3.459 2.221-.125 54.59-2.546 92.506 34.989 26.873 26.596 39.334 66.297 37.016 117.995-.081 1.851-1.607 3.309-3.459 3.307z" fill="#323c6b"/></g><g><path d="m251.157 385.245c-2.193 0-4.414-.055-6.614-.159-1.258.012-2.516-.065-3.764-.228-1.266-.048-2.705-.125-4.214-.27-3.805-.277-7.763-.768-11.658-1.335-1.701-.247-2.962-1.706-2.961-3.425 2.193-49.747-9.465-87.531-34.657-112.668-35.335-35.286-85.248-33.363-87.365-33.259-.997.077-1.978-.281-2.691-.982-.711-.664-1.123-1.587-1.142-2.56.069-2.691.214-5.376.429-8.067.069-1.82.208-3.84.429-5.791.062-1.072.201-2.325.353-3.515-.028-.466.021-.934.145-1.384.145-1.384.36-3.162.643-4.843.526-3.895 1.273-7.936 2.249-12.24.278-1.217 1.19-2.19 2.387-2.546 94.951-40.091 202.081-40.069 297.015.062l.235.111c.949.439 1.648 1.283 1.903 2.297.194.775.339 1.598.471 2.394.533 2.47.969 4.615 1.322 6.829.45 2.671.851 5.044 1.128 7.417.221 1.792.429 3.404.498 5.03.557 4.756.835 9.541.83 14.329 0 1.911-1.549 3.459-3.459 3.459h-.138c-2.256-.09-52.584-1.757-87.69 33.425-25.074 25.123-36.67 62.831-34.595 112.086.088 1.812-1.132 3.428-2.899 3.84-3.612.595-7.472 1.038-11.797 1.384l-4.504.346c-1.204.076-2.38.152-3.459.152-2.12.056-4.278.111-6.43.111zm-22.175-8.413c2.726.36 5.459.692 8.164.865 1.474.138 2.802.208 4.2.27 1.116.133 2.239.202 3.363.208 4.331.201 8.545.208 12.703 0 1.135 0 2.166-.069 3.127-.138l4.477-.339c2.968-.214 5.68-.491 8.22-.837-1.619-49.934 10.724-88.382 36.67-114.418 32.519-32.519 75.914-35.432 89.213-35.501-.104-3.397-.353-6.787-.754-10.275-.076-1.681-.263-3.1-.443-4.518-.291-2.505-.692-4.753-1.052-7.009-.401-2.442-.803-4.449-1.273-6.525-.055-.318-.104-.595-.145-.851-92.41-38.564-196.411-38.539-288.803.069-.74 3.459-1.315 6.725-1.764 9.97-.284 1.716-.484 3.39-.692 5.065 0 .145-.048.851-.069.996-.138 1.031-.263 2.124-.325 3.217-.214 1.972-.346 3.826-.415 5.611-.118 1.446-.201 2.857-.277 4.248 12.835.131 56.673 3.03 89.026 35.286 26.14 26.098 38.511 64.63 36.829 114.605h.02z" fill="#323c6b"/></g><g><path d="m251.157 425.431c-36.147 0-71.52-10.022-102.294-28.985-.147-.09-.288-.189-.422-.298-28.505-22.901-50.839-43.76-67.188-71.118-19.233-32.184-27.113-69.525-24.091-114.158.003-.047.007-.094.012-.141 4.907-48.128 27.382-92.491 63.287-124.915 35.894-32.414 82.299-50.267 130.662-50.267.019 0 .03.001.056 0 48.327 0 94.698 17.828 130.578 50.203 35.826 32.325 58.297 76.539 63.293 124.526 8.886 40.181 3.907 75.669-15.216 108.484-15.267 26.197-38.737 50.098-76.103 77.496-.09.066-.183.128-.277.187-30.777 18.963-66.15 28.986-102.297 28.986zm-97.72-35.919c60.324 37.059 135.204 37.042 195.518-.048 56.922-41.76 106.932-92.194 87.935-177.619-.034-.157-.061-.316-.077-.477-9.825-95.498-89.637-167.517-185.636-167.517-.012 0-.008.004-.021 0-.012 0-.024 0-.036 0-96.091 0-175.9 72.062-185.681 167.65-6.333 93.884 37.982 137.805 87.998 178.011zm71.954-5.734c-.229 0-.459-.019-.689-.058-28.364-4.774-54.726-17.39-76.238-36.483-.301-.267-.562-.577-.774-.919l-46.564-75.208c-.219-.354-.384-.739-.488-1.143-3.349-12.896-5.046-26.189-5.046-39.512 0-2.218 1.743-4.044 3.958-4.147 2.243-.106 55.417-2.127 93.099 35.474 26.767 26.71 39.178 66.42 36.889 118.028-.053 1.188-.613 2.297-1.538 3.045-.744.602-1.667.923-2.609.923zm-70.964-42.35c19.073 16.788 42.134 28.219 66.986 33.241 1.242-46.847-10.398-82.831-34.628-107.01-29.794-29.729-70.036-32.878-82.833-33.09.305 11.031 1.837 22.011 4.567 32.708zm122.371 42.281c-.943 0-1.865-.321-2.609-.923-.927-.749-1.486-1.859-1.538-3.049-2.229-51.453 10.146-91.074 36.779-117.765 36.803-36.88 87.59-35.891 93.256-35.665 2.218.091 3.972 1.911 3.98 4.131.055 13.417-1.618 26.808-4.975 39.801-.105.408-.272.799-.495 1.156l-46.703 75.001c-.215.344-.478.654-.781.922-21.554 18.971-47.91 31.535-76.221 36.332-.23.039-.463.059-.693.059zm121.525-149.12c-12.863.267-53.398 3.567-83.017 33.248-24.107 24.159-35.713 60.06-34.526 106.757 24.813-5.038 47.875-16.424 66.989-33.108l46.04-73.935c2.736-10.782 4.251-21.848 4.514-32.962zm-.651 34.612h.01zm-48.956-63.916c-.381 0-.769-.053-1.153-.164-1.499-.433-2.998-.854-4.496-1.264-2.212-.605-3.515-2.888-2.909-5.1.604-2.213 2.892-3.512 5.099-2.909 1.537.42 3.073.852 4.609 1.296 2.202.635 3.473 2.937 2.837 5.14-.525 1.818-2.184 3.001-3.987 3.001zm-244.793-5.895c-.964 0-1.917-.336-2.68-.98-1.197-1.011-1.722-2.61-1.359-4.134 8.074-33.87 27.571-64.404 54.9-85.979 27.32-21.569 61.537-33.447 96.344-33.447h.057c34.81 0 69.022 11.877 96.344 33.447 27.329 21.575 46.826 52.11 54.9 85.979.363 1.524-.162 3.123-1.358 4.134-1.196 1.01-2.86 1.264-4.303.65-92.539-39.305-198.685-39.305-291.223 0-.522.221-1.074.33-1.622.33zm147.204-116.239c-65.656 0-122.509 42.787-141.026 105.052 45.029-17.98 92.438-27.089 141.056-27.089s96.027 9.109 141.056 27.089c-18.517-62.261-75.376-105.052-141.027-105.052-.013 0-.009.003-.03 0-.009 0-.02 0-.029 0zm71.361 115.596c-.283 0-.571-.029-.86-.09-18.031-3.8-36.505-6.247-54.905-7.272-2.29-.127-4.042-2.087-3.914-4.376.127-2.29 2.101-4.037 4.375-3.914 18.82 1.048 37.714 3.551 56.157 7.438 2.243.473 3.679 2.675 3.206 4.918-.412 1.954-2.138 3.296-4.059 3.296z" fill="#323c6b"/></g><g><path d="m479.419 332.253h-.145c-1.909-.078-3.393-1.69-3.314-3.599 0-.002 0-.004 0-.006l.249-5.84c-.054-1.784 1.348-3.274 3.132-3.328.158-.005.316.002.473.02 1.909.078 3.393 1.69 3.314 3.599v.006l-.249 5.84c-.082 1.852-1.607 3.31-3.46 3.308z" fill="#323c6b"/></g><g><path d="m482.622 402.868c-1.421-.001-2.697-.871-3.217-2.193-5.171-13.574-6.712-28.262-4.47-42.614l.457-14.786c.114-1.885 1.682-3.353 3.57-3.342 1.91.06 3.409 1.657 3.349 3.567v.004l-.484 15.111c-2.124 13.303-.74 26.93 4.013 39.535.699 1.775-.171 3.781-1.944 4.483-.407.157-.838.236-1.274.235z" fill="#323c6b"/></g><g><path d="m138.738 430.467c6.296-20.411 12.385-38.677 15.083-44.765 1.992-4.513 3.029-9.389 3.044-14.322.005-2.869-.344-5.727-1.038-8.51l-19.926-80.467c-3.805-12.731-6.435-16.536-11.139-19.65-3.35-2.26-7.521-2.942-11.416-1.868-5.249 1.651-9.041 6.228-9.686 11.693-.989 16.05.057 32.161 3.114 47.948.612 3.609-1.818 7.031-5.427 7.643-.792.134-1.603.123-2.391-.032-2.232-.411-4.105-1.92-4.982-4.013-12.752-33.614-21.259-68.687-25.324-104.407-2.428-7.669-10.613-11.917-18.281-9.489-6.959 2.203-11.213 9.218-9.948 16.408l4.082 129.245c2.535 17.237.63 34.836-5.535 51.131l-8.026 23.455" fill="#fcd462"/></g><g><path d="m30.948 433.927c-.381-.001-.76-.064-1.121-.187-1.804-.619-2.766-2.581-2.152-4.387l8.019-23.455c5.997-15.794 7.851-32.861 5.383-49.574l-4.117-129.578c-1.447-9.829 5.348-18.97 15.178-20.417 1.292-.19 2.602-.239 3.905-.146 7.35.512 13.651 5.442 15.914 12.454 4.05 35.645 12.531 70.646 25.247 104.192.437.999 1.342 1.715 2.415 1.91 1.713.358 3.392-.74 3.751-2.453.082-.393.089-.798.02-1.194-3.16-16.124-4.211-32.591-3.127-48.986.96-9.309 9.284-16.077 18.593-15.118 2.817.29 5.517 1.282 7.852 2.885 5.819 3.847 8.752 8.884 12.537 21.532l19.975 80.626c.755 3.056 1.136 6.193 1.135 9.341-.021 5.41-1.154 10.759-3.328 15.713-2.505 5.639-8.372 23.061-14.945 44.392-.507 1.842-2.412 2.924-4.254 2.417s-2.924-2.412-2.417-4.254c.019-.069.04-.137.063-.204 6.753-21.898 12.579-39.196 15.222-45.146 1.799-4.073 2.741-8.472 2.768-12.925.003-2.586-.31-5.163-.934-7.673l-19.926-80.467c-3.57-11.907-5.881-15.069-9.686-17.595-2.514-1.706-5.65-2.224-8.579-1.418-3.915 1.292-6.72 4.746-7.182 8.842-.913 15.7.129 31.453 3.1 46.896.884 5.539-2.891 10.746-8.43 11.63-4.656.743-9.21-1.816-10.998-6.178-12.878-33.874-21.458-69.228-25.538-105.237-1.564-4.057-5.347-6.832-9.686-7.106-3.397-.308-6.737 1.021-8.995 3.577-2.328 2.54-3.35 6.014-2.768 9.41l4.151 129.723c2.581 17.707.59 35.78-5.784 52.501l-7.971 23.317c-.484 1.405-1.806 2.346-3.29 2.34z" fill="#323c6b"/></g><g><path d="m471.331 430.467-8.026-23.455c-6.198-16.287-8.104-33.895-5.535-51.131l4.082-129.245c1.393-7.922-3.899-15.474-11.821-16.867-7.19-1.265-14.205 2.989-16.408 9.948-4.065 35.72-12.572 70.793-25.323 104.406-.894 2.08-2.759 3.583-4.982 4.013-3.617.716-7.13-1.637-7.846-5.254-.154-.777-.168-1.575-.042-2.357 3.056-15.787 4.103-31.898 3.114-47.948-.66-7.384-7.18-12.835-14.564-12.175-2.324.208-4.554 1.018-6.469 2.35-4.705 3.114-7.403 6.919-11.209 19.65l-19.857 80.467c-.686 2.785-1.034 5.642-1.038 8.51.019 4.926 1.031 9.797 2.975 14.322 2.768 6.089 8.856 24.355 15.152 44.765" fill="#fcd462"/></g><g><path d="m397.049 326.006c-1.241 2.243-3.39 3.842-5.895 4.387-3.617.716-7.13-1.637-7.845-5.254-.154-.777-.168-1.575-.042-2.357 2.27-13.155 2.531-26.578.775-39.811-.59-5.466-4.368-10.059-9.617-11.693-1.24-.335-2.521-.498-3.805-.484 1.487-3.285 3.889-6.071 6.919-8.026 6.086-4.233 14.451-2.73 18.684 3.355 1.332 1.916 2.142 4.145 2.35 6.469.989 16.05-.057 32.161-3.113 47.948-.316 1.968.268 3.973 1.589 5.466z" fill="#f7be56"/></g><g><path d="m471.358 430.481h-18.058l-4.497-13.077c-6.198-16.287-8.104-33.895-5.535-51.131l4.082-129.245c1.377-7.952-3.953-15.515-11.905-16.892-.594-.103-1.193-.169-1.795-.198v-.208c2.428-7.668 10.613-11.917 18.281-9.489 6.959 2.203 11.212 9.218 9.948 16.408l-4.082 129.245c-2.569 17.236-.662 34.843 5.535 51.131z" fill="#f7be56"/></g><g><path d="m20.861 430.495h122.513c2.747 0 4.975 2.227 4.975 4.975v36.276c0 2.747-2.227 4.975-4.975 4.975h-122.513c-2.747 0-4.975-2.227-4.975-4.975v-36.276c0-2.748 2.227-4.975 4.975-4.975z" fill="#fe7058"/></g><g><path d="m143.381 480.173h-122.52c-4.643-.019-8.399-3.784-8.406-8.427v-36.283c.008-4.643 3.764-8.408 8.406-8.427h122.52c4.656.004 8.43 3.778 8.434 8.434v36.276c-.008 4.654-3.78 8.423-8.434 8.427zm-122.52-46.218c-.837 0-1.515.678-1.515 1.515v36.276c0 .837.678 1.515 1.515 1.515h122.52c.837 0 1.515-.678 1.515-1.515v-36.283c0-.837-.678-1.515-1.515-1.515z" fill="#323c6b"/></g><g><path d="m358.877 430.495h122.513c2.747 0 4.975 2.227 4.975 4.975v36.276c0 2.747-2.227 4.975-4.975 4.975h-122.513c-2.747 0-4.975-2.227-4.975-4.975v-36.276c.001-2.748 2.228-4.975 4.975-4.975z" fill="#fe7058"/></g><g><path d="m484.234 435.463v36.255c.012 2.74-2.2 4.97-4.94 4.982-.014 0-.028 0-.042 0h-9.804c2.74.012 4.97-2.2 4.982-4.94 0-.014 0-.028 0-.042v-36.255c.012-2.74-2.2-4.97-4.94-4.982-.014 0-.028 0-.042 0h9.804c2.74-.011 4.97 2.2 4.982 4.94z" fill="#ea6453"/></g><g><path d="m363.534 433.927c-1.519 0-2.861-.99-3.307-2.442-6.732-21.808-12.454-38.808-14.993-44.357-3.459-7.895-4.218-16.711-2.159-25.081l19.871-80.446c3.812-12.779 6.767-17.809 12.662-21.705 7.677-5.292 18.189-3.358 23.481 4.318 1.622 2.352 2.62 5.078 2.901 7.921 1.066 16.389.013 32.846-3.134 48.965-.169 1.019.178 2.056.927 2.768.756.748 1.836 1.07 2.878.858 1.109-.212 2.04-.962 2.484-2 12.634-33.308 21.048-68.067 25.046-103.466 2.105-7.251 8.465-12.453 15.99-13.077 9.932-.726 18.571 6.737 19.297 16.669.107 1.463.035 2.933-.214 4.379l-4.034 128.775c-2.54 16.764-.717 33.9 5.293 49.754l8.081 23.6c.7 1.778-.174 3.786-1.952 4.486s-3.786-.174-4.486-1.952c-.038-.096-.071-.194-.1-.293l-8.026-23.455c-6.387-16.783-8.348-34.927-5.694-52.688l4.054-128.92c.7-3.526-.294-7.176-2.685-9.859-4.09-4.544-11.09-4.912-15.634-.822-1.474 1.327-2.565 3.025-3.158 4.918-4.043 35.815-12.579 70.979-25.406 104.662-1.345 3.17-4.181 5.461-7.562 6.109-5.491 1.071-10.81-2.513-11.88-8.004-.23-1.178-.248-2.387-.055-3.572 2.967-15.449 4.008-31.206 3.1-46.91-.406-5.491-5.187-9.614-10.678-9.208-1.803.133-3.536.755-5.014 1.797-3.888 2.567-6.227 5.743-9.811 17.761l-19.81 80.29c-.617 2.514-.933 5.092-.941 7.68.019 4.462.939 8.875 2.705 12.973 2.636 5.805 8.358 22.687 15.27 45.098.563 1.825-.459 3.76-2.283 4.324-.332.103-.677.155-1.024.152z" fill="#323c6b"/></g><g><path d="m481.398 480.173h-122.52c-4.656-.004-8.43-3.778-8.434-8.434v-36.276c.004-4.656 3.778-8.43 8.434-8.434h122.52c4.662-.011 8.45 3.758 8.462 8.42v.014 36.276c-.004 4.662-3.786 8.438-8.448 8.434-.005 0-.01 0-.014 0zm-122.521-46.218c-.837 0-1.515.678-1.515 1.515v36.276c0 .837.678 1.515 1.515 1.515h122.52c.837 0 1.515-.678 1.515-1.515v-36.283c0-.837-.678-1.515-1.515-1.515z" fill="#323c6b"/></g></g></svg>